# xmcd
# Track frame offsets:
# 150
# 12182
# 29047
# 41087
# 55357
# 66445
# 78695
# 91812
# 105330
# 118625
# 129787
# 145142
#
# Disc length: 2161 seconds
# Revision: 0
# Processed by: cddbd v1.4PL0 Copyright (c) Steve Scherf et al.
# Submitted via: VisiTrax 2.9.5.180 - For more info visit www.synapsa.com
#
DISCID=a0086f0c
DTITLE=Jacob Lyda - Three times the charm
DYEAR=1998
DGENRE=
TTITLE0=That's what I thought you wanted me to do
TTITLE1=Our house is just a house
TTITLE2=Who can we fool tonight
TTITLE3=When we make love
TTITLE4=Let this one go
TTITLE5=You sure know how to leave in style
TTITLE6=Two wrongs just don't make it right
TTITLE7=Back to Bakersfield
TTITLE8=When love gets in the way
TTITLE9=Lost in love
TTITLE10=I've got a memor
TTITLE11=Our nights have seen some better days
EXTD=
EXTT0=
EXTT1=
EXTT2=
EXTT3=
EXTT4=
EXTT5=
EXTT6=
EXTT7=
EXTT8=
EXTT9=
EXTT10=
EXTT11=
PLAYORDER=
